<svg xmlns="http://www.w3.org/2000/svg" viewBox="0 0 32 32"><path fill="#0277bd" d="M22.031 6.662v.012h3.053l-3.053-.012zm-14.596.012a6.555 6.555 0 0 1-2.291 4.478 9.071 9.071 0 0 0-3.145 6.772c-.03 2.4.9 4.678 2.602 6.406 1.732 1.758 4.035 2.732 6.488 2.732h3.633V28.6h.02v-8.247A3.64 3.64 0 0 1 11.109 24a5.993 5.993 0 0 1-4.315-1.818c-1.13-1.145-1.74-2.642-1.72-4.22a5.99 5.99 0 0 1 2.082-4.47c2.122-1.848 3.332-4.056 3.332-6.818H7.435z"/><path fill="#e64a19" d="M14.742 6.674V27.5h3.033v-.437h3.633a9.008 9.008 0 0 0 6.488-2.733 8.892 8.892 0 0 0 2.602-6.406 8.992 8.992 0 0 0-3.133-6.771c-1.34-1.155-2.161-2.77-2.281-4.479H22.03c.004 2.767 1.214 4.964 3.354 6.799a6.005 6.005 0 0 1 2.082 4.47 5.844 5.844 0 0 1-1.723 4.22 6.01 6.01 0 0 1-4.314 1.818 3.64 3.64 0 0 1-3.633-3.647V6.674h-3.055z"/><path fill="#4db6ac" d="M16.164 2c-.22 0-.44.097-.59.293l-2.633 3.416a.598.598 0 0 0 .418.957h5.612a.598.598 0 0 0 .418-.957l-2.633-3.416A.742.742 0 0 0 16.164 2zm-6.27.148a.56.56 0 0 0-.296.116L5.123 5.809c-.347.27-.171.816.252.857h5.113l.012-3.96a.56.56 0 0 0-.605-.558zm12.73.006a.552.552 0 0 0-.603.551l.01 3.96v.001h5.113a.486.486 0 0 0 .252-.857l-4.475-3.536a.557.557 0 0 0-.296-.119z"/><path fill="#ffb300" d="M19.497 30h-6.994A1.501 1.501 0 0 1 11 28.5c0-.823.668-1.5 1.503-1.5h6.994c.825 0 1.503.667 1.503 1.5-.01.833-.678 1.5-1.503 1.5Z"/><path fill="#00796B" d="M1.988 23.281v3.72h3.545a10.021 8.332 0 0 1-3.545-3.72z"/></svg>